<!-- icon666.com - MILLIONS vector ICONS FREE --><svg id="Layer_1" enable-background="new 0 0 512 512" viewBox="0 0 512 512" xmlns="http://www.w3.org/2000/svg"><g><path d="m461 156h-410c-2.8 0-5-2.2-5-5v-90c0-2.8 2.2-5 5-5h410c2.8 0 5 2.2 5 5v90c0 2.8-2.2 5-5 5z" fill="#000000" style="fill: rgb(171, 105, 105);"></path><path d="m56 66h400v80h-400z" fill="#e64d2e"></path><path d="m461 306h-410c-2.8 0-5-2.2-5-5v-90c0-2.8 2.2-5 5-5h410c2.8 0 5 2.2 5 5v90c0 2.8-2.2 5-5 5z" fill="#000000" style="fill: rgb(171, 105, 105);"></path><path d="m56 216h400v80h-400z" fill="#cc2929" style="fill: rgb(212, 17, 17);"></path><path d="m461 456h-410c-2.8 0-5-2.2-5-5v-90c0-2.8 2.2-5 5-5h410c2.8 0 5 2.2 5 5v90c0 2.8-2.2 5-5 5z" fill="#000000" style="fill: rgb(171, 105, 105);"></path><path d="m56 366h400v80h-400z" fill="#e64d2e"></path></g></svg>